<svg aria-hidden="true" style="position: absolute; width: 0; height: 0; overflow: hidden;" version="1.1" xmlns="http://www.w3.org/2000/svg" xmlns:xlink="http://www.w3.org/1999/xlink">
<defs>
<symbol id="address" viewBox="0 0 32 32">
<path fill="#333" style="fill: var(--color1, #333)" d="M16 32c8.837 0 16-7.163 16-16s-7.163-16-16-16-16 7.163-16 16 7.163 16 16 16z"></path>
<path fill="#fff" style="fill: var(--color2, #fff)" d="M16 8c-2.745 0-4.971 2.238-4.971 5.001 0 4.775 4.972 10.999 4.972 10.999s4.97-6.225 4.97-11.001c0-2.761-2.225-4.999-4.971-4.999zM16 15.425c-1.3 0-2.351-1.058-2.351-2.363s1.056-2.367 2.351-2.367c1.3 0 2.351 1.058 2.351 2.367 0 1.305-1.051 2.363-2.351 2.363z"></path>
</symbol>
<symbol id="email" viewBox="0 0 32 32">
<path fill="#333" style="fill: var(--color1, #333)" d="M16 32c8.837 0 16-7.163 16-16s-7.163-16-16-16-16 7.163-16 16 7.163 16 16 16z"></path>
<path fill="#fff" style="fill: var(--color2, #fff)" d="M8 11.628v9.058c0 0.494 0.361 0.894 0.858 0.894h14.14c0.496 0 0.858-0.404 0.858-0.892v-9.060c0-0.542-0.324-0.961-0.858-0.961h-14.14c-0.555 0-0.858 0.431-0.858 0.96zM9.305 12.416c0-0.218 0.132-0.342 0.342-0.342 0.13 0 5.268 3.255 5.58 3.446l0.804 0.501c0.255-0.172 0.511-0.318 0.775-0.495 0.539-0.345 5.338-3.452 5.471-3.452 0.212 0 0.343 0.124 0.343 0.343 0 0.231-0.446 0.46-0.736 0.638-1.822 1.11-3.644 2.321-5.449 3.473-0.106 0.071-0.309 0.224-0.462 0.201-0.171-0.026-5.399-3.385-6.351-3.945-0.143-0.085-0.32-0.161-0.32-0.367z"></path>
</symbol>
<symbol id="tel" viewBox="0 0 32 32">
<path fill="#333" style="fill: var(--color1, #333)" d="M16 32c8.837 0 16-7.163 16-16s-7.163-16-16-16-16 7.163-16 16 7.163 16 16 16z"></path>
<path fill="#fff" style="fill: var(--color2, #fff)" d="M22.663 19.312c-0.609-0.624-2.338-1.796-3.471-1.796-0.263 0-0.492 0.059-0.679 0.18-0.554 0.354-0.997 0.629-1.209 0.629-0.117 0-0.241-0.105-0.517-0.341l-0.046-0.042c-0.763-0.663-0.926-0.834-1.221-1.142l-0.074-0.079c-0.055-0.054-0.101-0.105-0.148-0.15-0.258-0.267-0.446-0.459-1.108-1.209l-0.030-0.033c-0.316-0.358-0.524-0.591-0.537-0.763-0.012-0.166 0.133-0.437 0.505-0.942 0.449-0.608 0.466-1.358 0.053-2.228-0.329-0.689-0.866-1.346-1.342-1.926l-0.042-0.049c-0.407-0.501-0.882-0.751-1.412-0.751-0.588 0-1.076 0.316-1.334 0.484-0.021 0.012-0.042 0.028-0.062 0.042-0.58 0.367-1.001 0.87-1.159 1.383-0.238 0.77-0.395 1.77 0.742 3.85 0.983 1.799 1.874 3.008 3.291 4.463 1.334 1.366 1.926 1.808 3.25 2.766 1.476 1.067 2.892 1.68 3.883 1.68 0.921 0 1.647 0 2.679-1.246 1.083-1.308 0.634-2.108-0.016-2.78z"></path>
</symbol>
<symbol id="logo" viewBox="0 0 116 32">
<path fill="#1d1d1f" style="fill: var(--color1, #1d1d1f)" d="M31.073 1.348h-23.684c-3.015 0-5.46 2.459-5.46 5.49v23.813l29.144-29.303z"></path>
<path fill="#c0e278" style="fill: var(--color2, #c0e278)" d="M2.034 30.652h23.515c2.994 0 5.421-2.44 5.421-5.451v-23.643l-28.935 29.094zM41.486 25.326l1.935-5.356h-3.684l-4.824-13.323h3.923l3.525 9.753h2.332l3.525-9.753h3.895l-6.704 18.678h-3.923zM64.941 21.453c2.413-1.163 3.764-3.203 3.825-5.478l3.537-1.704c0.771 4.268-1.525 8.329-5.826 10.402-5.234 2.523-10.965 0.675-13.347-4.324-2.418-5.069-0.274-10.683 4.985-13.217 4.301-2.073 8.865-1.317 11.714 1.949l-3.537 1.705c-1.79-1.413-4.206-1.608-6.643-0.434-3.417 1.647-4.754 5.069-3.174 8.385 1.547 3.244 5.073 4.351 8.467 2.716zM80.941 6.673h4.134l9.356 18.653h-4.134l-2.2-4.396h-10.15l-2.2 4.396h-4.108l9.303-18.652zM86.374 17.519l-3.365-6.715-3.365 6.715h6.731zM113.804 6.674v18.652h-3.71v-15.214h-10.707v15.214h-3.71v-18.652h18.127z"></path>
<path fill="#c0e278" style="fill: var(--color2, #c0e278)" d="M65.266 4.725h-6.147v2.989h6.147v-2.989zM61.134 19.366c0-0.56-0.451-1.013-1.008-1.013-0.557 0.002-1.007 0.454-1.007 1.011 0 0.001 0 0.002 0 0.003v-0c0 0.56 0.451 1.013 1.007 1.013 0.557-0.002 1.008-0.454 1.008-1.011 0-0.001 0-0.002 0-0.002v0zM65.619 17.611c0-0.333-0.269-0.603-0.599-0.603s-0.599 0.27-0.599 0.603 0.269 0.602 0.599 0.602 0.599-0.27 0.599-0.603zM65.32 21.492c0-0.001 0-0.003 0-0.004 0-0.836-0.677-1.515-1.513-1.517h-0c-0.835 0.003-1.511 0.681-1.511 1.516 0 0.002 0 0.003 0 0.005v-0c0 0.001 0 0.003 0 0.005 0 0.836 0.676 1.514 1.511 1.516h0c0.836-0.002 1.513-0.681 1.513-1.517 0-0.001 0-0.003 0-0.004v0zM63.122 18.671c0-0 0-0.001 0-0.001 0-0.199-0.161-0.361-0.36-0.362h-0c-0.2 0-0.363 0.162-0.363 0.363s0.162 0.363 0.363 0.363v0c0.199-0.001 0.361-0.162 0.361-0.362 0-0 0-0.001 0-0.001v0zM67.158 18.715c0 0 0 0 0 0 0-0.2-0.161-0.362-0.361-0.363h-0c-0.199 0.001-0.361 0.163-0.361 0.363 0 0 0 0 0 0v0c0 0.201 0.162 0.364 0.361 0.364s0.361-0.163 0.361-0.362c0-0 0-0.001 0-0.001v0z"></path>
</symbol>
<symbol id="dropdown-arrow" viewBox="0 0 32 32">
<path stroke="currentColor" stroke-linejoin="round" stroke-linecap="round" stroke-miterlimit="4" stroke-width="2.9091" d="M8 12l8 8 8-8"></path>
</symbol>
<symbol id="searching" viewBox="0 0 32 32">
<path stroke="currentColor" fill="currentColor" d="M24 13.333c0.004-2.411-0.808-4.752-2.305-6.642s-3.59-3.217-5.938-3.764c-2.348-0.548-4.812-0.284-6.991 0.748s-3.943 2.772-5.006 4.936c-1.063 2.164-1.362 4.624-0.847 6.979s1.812 4.467 3.68 5.991c1.868 1.524 4.198 2.369 6.608 2.399s4.76-0.758 6.666-2.234l8.533 8.533 1.88-1.88-8.533-8.533c1.455-1.867 2.248-4.166 2.253-6.533zM13.333 21.333c-1.582 0-3.129-0.469-4.445-1.348s-2.341-2.128-2.946-3.59c-0.606-1.462-0.764-3.070-0.455-4.622s1.071-2.977 2.189-4.096c1.119-1.119 2.544-1.881 4.096-2.189s3.16-0.15 4.622 0.455 2.711 1.631 3.59 2.946c0.879 1.316 1.348 2.862 1.348 4.445 0 2.122-0.843 4.157-2.343 5.657s-3.535 2.343-5.657 2.343z"></path>
</symbol>

<symbol id="burger" viewBox="0 0 37 32">
<path stroke="currentColor" fill="currentColor" stroke-linejoin="miter" stroke-linecap="round" stroke-miterlimit="4" stroke-width="3.3684" d="M1.684 2.526h33.684M1.684 16h33.684M1.684 29.474h33.684"></path>
</symbol>
<symbol id="close-menu" viewBox="0 0 30 32">
<path fill="currentColor" stroke="currentColor" style="stroke: var(--color1, #fff)" stroke-linejoin="miter" stroke-linecap="round" stroke-miterlimit="4" stroke-width="1.6" d="M0.8 1.6l28.539 28.027M0.8 30.4l28.539-28.027"></path>
</symbol>
</defs>
</svg>
